G04 #@! TF.GenerationSoftware,KiCad,Pcbnew,8.0.1*
G04 #@! TF.CreationDate,2024-04-03T00:25:32+02:00*
G04 #@! TF.ProjectId,vectrex_cart_v1,76656374-7265-4785-9f63-6172745f7631,V0.1*
G04 #@! TF.SameCoordinates,Original*
G04 #@! TF.FileFunction,Soldermask,Top*
G04 #@! TF.FilePolarity,Negative*
%FSLAX46Y46*%
G04 Gerber Fmt 4.6, Leading zero omitted, Abs format (unit mm)*
G04 Created by KiCad (PCBNEW 8.0.1) date 2024-04-03 00:25:32*
%MOMM*%
%LPD*%
G01*
G04 APERTURE LIST*
G04 Aperture macros list*
%AMRoundRect*
0 Rectangle with rounded corners*
0 $1 Rounding radius*
0 $2 $3 $4 $5 $6 $7 $8 $9 X,Y pos of 4 corners*
0 Add a 4 corners polygon primitive as box body*
4,1,4,$2,$3,$4,$5,$6,$7,$8,$9,$2,$3,0*
0 Add four circle primitives for the rounded corners*
1,1,$1+$1,$2,$3*
1,1,$1+$1,$4,$5*
1,1,$1+$1,$6,$7*
1,1,$1+$1,$8,$9*
0 Add four rect primitives between the rounded corners*
20,1,$1+$1,$2,$3,$4,$5,0*
20,1,$1+$1,$4,$5,$6,$7,0*
20,1,$1+$1,$6,$7,$8,$9,0*
20,1,$1+$1,$8,$9,$2,$3,0*%
G04 Aperture macros list end*
%ADD10C,5.300000*%
%ADD11RoundRect,0.135000X0.135000X0.185000X-0.135000X0.185000X-0.135000X-0.185000X0.135000X-0.185000X0*%
%ADD12RoundRect,0.400000X-4.600000X0.400000X-4.600000X-0.400000X4.600000X-0.400000X4.600000X0.400000X0*%
%ADD13C,3.700000*%
%ADD14C,1.400000*%
%ADD15O,1.400000X1.400000*%
%ADD16R,1.600000X1.600000*%
%ADD17O,1.600000X1.600000*%
G04 APERTURE END LIST*
D10*
X117517200Y-68105600D03*
D11*
X100010000Y-47500000D03*
X98990000Y-47500000D03*
D12*
X130810200Y-46400200D03*
X130810200Y-48940200D03*
X130810200Y-51480200D03*
X130810200Y-54020200D03*
X130810200Y-56560200D03*
X130810200Y-59100200D03*
X130810200Y-61640200D03*
X130810200Y-64180200D03*
X130810200Y-66720200D03*
X130810200Y-69260200D03*
X130810200Y-71800200D03*
X130810200Y-74340200D03*
X130810200Y-76880200D03*
X130810200Y-79420200D03*
X130810200Y-81960200D03*
X130810200Y-84500200D03*
X130810200Y-87040200D03*
X130810200Y-89580200D03*
D13*
X117517200Y-50605600D03*
X117517200Y-85605600D03*
D14*
X105210000Y-47500000D03*
D15*
X110290000Y-47500000D03*
D16*
X95000000Y-51500000D03*
D17*
X95000000Y-54040000D03*
X95000000Y-56580000D03*
X95000000Y-59120000D03*
X95000000Y-61660000D03*
X95000000Y-64200000D03*
X95000000Y-66740000D03*
X95000000Y-69280000D03*
X95000000Y-71820000D03*
X95000000Y-74360000D03*
X95000000Y-76900000D03*
X95000000Y-79440000D03*
X95000000Y-81980000D03*
X95000000Y-84520000D03*
X110240000Y-84520000D03*
X110240000Y-81980000D03*
X110240000Y-79440000D03*
X110240000Y-76900000D03*
X110240000Y-74360000D03*
X110240000Y-71820000D03*
X110240000Y-69280000D03*
X110240000Y-66740000D03*
X110240000Y-64200000D03*
X110240000Y-61660000D03*
X110240000Y-59120000D03*
X110240000Y-56580000D03*
X110240000Y-54040000D03*
X110240000Y-51500000D03*
M02*
