G04 #@! TF.GenerationSoftware,KiCad,Pcbnew,8.0.1*
G04 #@! TF.CreationDate,2024-04-03T00:25:31+02:00*
G04 #@! TF.ProjectId,vectrex_cart_v1,76656374-7265-4785-9f63-6172745f7631,V0.1*
G04 #@! TF.SameCoordinates,Original*
G04 #@! TF.FileFunction,Legend,Top*
G04 #@! TF.FilePolarity,Positive*
%FSLAX46Y46*%
G04 Gerber Fmt 4.6, Leading zero omitted, Abs format (unit mm)*
G04 Created by KiCad (PCBNEW 8.0.1) date 2024-04-03 00:25:31*
%MOMM*%
%LPD*%
G01*
G04 APERTURE LIST*
%ADD10C,0.200000*%
%ADD11C,0.150000*%
%ADD12C,0.120000*%
G04 APERTURE END LIST*
D10*
X90744838Y-89427945D02*
X92744838Y-88761279D01*
X92744838Y-88761279D02*
X90744838Y-88094612D01*
X91697219Y-87427945D02*
X91697219Y-86761278D01*
X92744838Y-86475564D02*
X92744838Y-87427945D01*
X92744838Y-87427945D02*
X90744838Y-87427945D01*
X90744838Y-87427945D02*
X90744838Y-86475564D01*
X92554361Y-84475564D02*
X92649600Y-84570802D01*
X92649600Y-84570802D02*
X92744838Y-84856516D01*
X92744838Y-84856516D02*
X92744838Y-85046992D01*
X92744838Y-85046992D02*
X92649600Y-85332707D01*
X92649600Y-85332707D02*
X92459123Y-85523183D01*
X92459123Y-85523183D02*
X92268647Y-85618421D01*
X92268647Y-85618421D02*
X91887695Y-85713659D01*
X91887695Y-85713659D02*
X91601980Y-85713659D01*
X91601980Y-85713659D02*
X91221028Y-85618421D01*
X91221028Y-85618421D02*
X91030552Y-85523183D01*
X91030552Y-85523183D02*
X90840076Y-85332707D01*
X90840076Y-85332707D02*
X90744838Y-85046992D01*
X90744838Y-85046992D02*
X90744838Y-84856516D01*
X90744838Y-84856516D02*
X90840076Y-84570802D01*
X90840076Y-84570802D02*
X90935314Y-84475564D01*
X90744838Y-83904135D02*
X90744838Y-82761278D01*
X92744838Y-83332707D02*
X90744838Y-83332707D01*
X92744838Y-80951754D02*
X91792457Y-81618421D01*
X92744838Y-82094611D02*
X90744838Y-82094611D01*
X90744838Y-82094611D02*
X90744838Y-81332706D01*
X90744838Y-81332706D02*
X90840076Y-81142230D01*
X90840076Y-81142230D02*
X90935314Y-81046992D01*
X90935314Y-81046992D02*
X91125790Y-80951754D01*
X91125790Y-80951754D02*
X91411504Y-80951754D01*
X91411504Y-80951754D02*
X91601980Y-81046992D01*
X91601980Y-81046992D02*
X91697219Y-81142230D01*
X91697219Y-81142230D02*
X91792457Y-81332706D01*
X91792457Y-81332706D02*
X91792457Y-82094611D01*
X91697219Y-80094611D02*
X91697219Y-79427944D01*
X92744838Y-79142230D02*
X92744838Y-80094611D01*
X92744838Y-80094611D02*
X90744838Y-80094611D01*
X90744838Y-80094611D02*
X90744838Y-79142230D01*
X90744838Y-78475563D02*
X92744838Y-77142230D01*
X90744838Y-77142230D02*
X92744838Y-78475563D01*
X92744838Y-73713658D02*
X91792457Y-74380325D01*
X92744838Y-74856515D02*
X90744838Y-74856515D01*
X90744838Y-74856515D02*
X90744838Y-74094610D01*
X90744838Y-74094610D02*
X90840076Y-73904134D01*
X90840076Y-73904134D02*
X90935314Y-73808896D01*
X90935314Y-73808896D02*
X91125790Y-73713658D01*
X91125790Y-73713658D02*
X91411504Y-73713658D01*
X91411504Y-73713658D02*
X91601980Y-73808896D01*
X91601980Y-73808896D02*
X91697219Y-73904134D01*
X91697219Y-73904134D02*
X91792457Y-74094610D01*
X91792457Y-74094610D02*
X91792457Y-74856515D01*
X91697219Y-72856515D02*
X91697219Y-72189848D01*
X92744838Y-71904134D02*
X92744838Y-72856515D01*
X92744838Y-72856515D02*
X90744838Y-72856515D01*
X90744838Y-72856515D02*
X90744838Y-71904134D01*
X90744838Y-71332705D02*
X90744838Y-70189848D01*
X92744838Y-70761277D02*
X90744838Y-70761277D01*
X92744838Y-68380324D02*
X91792457Y-69046991D01*
X92744838Y-69523181D02*
X90744838Y-69523181D01*
X90744838Y-69523181D02*
X90744838Y-68761276D01*
X90744838Y-68761276D02*
X90840076Y-68570800D01*
X90840076Y-68570800D02*
X90935314Y-68475562D01*
X90935314Y-68475562D02*
X91125790Y-68380324D01*
X91125790Y-68380324D02*
X91411504Y-68380324D01*
X91411504Y-68380324D02*
X91601980Y-68475562D01*
X91601980Y-68475562D02*
X91697219Y-68570800D01*
X91697219Y-68570800D02*
X91792457Y-68761276D01*
X91792457Y-68761276D02*
X91792457Y-69523181D01*
X90744838Y-67142229D02*
X90744838Y-66761276D01*
X90744838Y-66761276D02*
X90840076Y-66570800D01*
X90840076Y-66570800D02*
X91030552Y-66380324D01*
X91030552Y-66380324D02*
X91411504Y-66285086D01*
X91411504Y-66285086D02*
X92078171Y-66285086D01*
X92078171Y-66285086D02*
X92459123Y-66380324D01*
X92459123Y-66380324D02*
X92649600Y-66570800D01*
X92649600Y-66570800D02*
X92744838Y-66761276D01*
X92744838Y-66761276D02*
X92744838Y-67142229D01*
X92744838Y-67142229D02*
X92649600Y-67332705D01*
X92649600Y-67332705D02*
X92459123Y-67523181D01*
X92459123Y-67523181D02*
X92078171Y-67618419D01*
X92078171Y-67618419D02*
X91411504Y-67618419D01*
X91411504Y-67618419D02*
X91030552Y-67523181D01*
X91030552Y-67523181D02*
X90840076Y-67332705D01*
X90840076Y-67332705D02*
X90744838Y-67142229D01*
X90840076Y-64380324D02*
X90744838Y-64570800D01*
X90744838Y-64570800D02*
X90744838Y-64856514D01*
X90744838Y-64856514D02*
X90840076Y-65142229D01*
X90840076Y-65142229D02*
X91030552Y-65332705D01*
X91030552Y-65332705D02*
X91221028Y-65427943D01*
X91221028Y-65427943D02*
X91601980Y-65523181D01*
X91601980Y-65523181D02*
X91887695Y-65523181D01*
X91887695Y-65523181D02*
X92268647Y-65427943D01*
X92268647Y-65427943D02*
X92459123Y-65332705D01*
X92459123Y-65332705D02*
X92649600Y-65142229D01*
X92649600Y-65142229D02*
X92744838Y-64856514D01*
X92744838Y-64856514D02*
X92744838Y-64666038D01*
X92744838Y-64666038D02*
X92649600Y-64380324D01*
X92649600Y-64380324D02*
X92554361Y-64285086D01*
X92554361Y-64285086D02*
X91887695Y-64285086D01*
X91887695Y-64285086D02*
X91887695Y-64666038D01*
X92173409Y-63523181D02*
X92173409Y-62570800D01*
X92744838Y-63713657D02*
X90744838Y-63046991D01*
X90744838Y-63046991D02*
X92744838Y-62380324D01*
X92744838Y-61713657D02*
X90744838Y-61713657D01*
X90744838Y-61713657D02*
X92173409Y-61046990D01*
X92173409Y-61046990D02*
X90744838Y-60380324D01*
X90744838Y-60380324D02*
X92744838Y-60380324D01*
X92744838Y-59427943D02*
X90744838Y-59427943D01*
X92744838Y-58475562D02*
X90744838Y-58475562D01*
X90744838Y-58475562D02*
X92744838Y-57332705D01*
X92744838Y-57332705D02*
X90744838Y-57332705D01*
X90840076Y-55332705D02*
X90744838Y-55523181D01*
X90744838Y-55523181D02*
X90744838Y-55808895D01*
X90744838Y-55808895D02*
X90840076Y-56094610D01*
X90840076Y-56094610D02*
X91030552Y-56285086D01*
X91030552Y-56285086D02*
X91221028Y-56380324D01*
X91221028Y-56380324D02*
X91601980Y-56475562D01*
X91601980Y-56475562D02*
X91887695Y-56475562D01*
X91887695Y-56475562D02*
X92268647Y-56380324D01*
X92268647Y-56380324D02*
X92459123Y-56285086D01*
X92459123Y-56285086D02*
X92649600Y-56094610D01*
X92649600Y-56094610D02*
X92744838Y-55808895D01*
X92744838Y-55808895D02*
X92744838Y-55618419D01*
X92744838Y-55618419D02*
X92649600Y-55332705D01*
X92649600Y-55332705D02*
X92554361Y-55237467D01*
X92554361Y-55237467D02*
X91887695Y-55237467D01*
X91887695Y-55237467D02*
X91887695Y-55618419D01*
X90935314Y-52951752D02*
X90840076Y-52856514D01*
X90840076Y-52856514D02*
X90744838Y-52666038D01*
X90744838Y-52666038D02*
X90744838Y-52189847D01*
X90744838Y-52189847D02*
X90840076Y-51999371D01*
X90840076Y-51999371D02*
X90935314Y-51904133D01*
X90935314Y-51904133D02*
X91125790Y-51808895D01*
X91125790Y-51808895D02*
X91316266Y-51808895D01*
X91316266Y-51808895D02*
X91601980Y-51904133D01*
X91601980Y-51904133D02*
X92744838Y-53046990D01*
X92744838Y-53046990D02*
X92744838Y-51808895D01*
X90744838Y-50570800D02*
X90744838Y-50380323D01*
X90744838Y-50380323D02*
X90840076Y-50189847D01*
X90840076Y-50189847D02*
X90935314Y-50094609D01*
X90935314Y-50094609D02*
X91125790Y-49999371D01*
X91125790Y-49999371D02*
X91506742Y-49904133D01*
X91506742Y-49904133D02*
X91982933Y-49904133D01*
X91982933Y-49904133D02*
X92363885Y-49999371D01*
X92363885Y-49999371D02*
X92554361Y-50094609D01*
X92554361Y-50094609D02*
X92649600Y-50189847D01*
X92649600Y-50189847D02*
X92744838Y-50380323D01*
X92744838Y-50380323D02*
X92744838Y-50570800D01*
X92744838Y-50570800D02*
X92649600Y-50761276D01*
X92649600Y-50761276D02*
X92554361Y-50856514D01*
X92554361Y-50856514D02*
X92363885Y-50951752D01*
X92363885Y-50951752D02*
X91982933Y-51046990D01*
X91982933Y-51046990D02*
X91506742Y-51046990D01*
X91506742Y-51046990D02*
X91125790Y-50951752D01*
X91125790Y-50951752D02*
X90935314Y-50856514D01*
X90935314Y-50856514D02*
X90840076Y-50761276D01*
X90840076Y-50761276D02*
X90744838Y-50570800D01*
X90935314Y-49142228D02*
X90840076Y-49046990D01*
X90840076Y-49046990D02*
X90744838Y-48856514D01*
X90744838Y-48856514D02*
X90744838Y-48380323D01*
X90744838Y-48380323D02*
X90840076Y-48189847D01*
X90840076Y-48189847D02*
X90935314Y-48094609D01*
X90935314Y-48094609D02*
X91125790Y-47999371D01*
X91125790Y-47999371D02*
X91316266Y-47999371D01*
X91316266Y-47999371D02*
X91601980Y-48094609D01*
X91601980Y-48094609D02*
X92744838Y-49237466D01*
X92744838Y-49237466D02*
X92744838Y-47999371D01*
X91411504Y-46285085D02*
X92744838Y-46285085D01*
X90649600Y-46761276D02*
X92078171Y-47237466D01*
X92078171Y-47237466D02*
X92078171Y-45999371D01*
D11*
X101858095Y-48624819D02*
X101858095Y-49434342D01*
X101858095Y-49434342D02*
X101905714Y-49529580D01*
X101905714Y-49529580D02*
X101953333Y-49577200D01*
X101953333Y-49577200D02*
X102048571Y-49624819D01*
X102048571Y-49624819D02*
X102239047Y-49624819D01*
X102239047Y-49624819D02*
X102334285Y-49577200D01*
X102334285Y-49577200D02*
X102381904Y-49529580D01*
X102381904Y-49529580D02*
X102429523Y-49434342D01*
X102429523Y-49434342D02*
X102429523Y-48624819D01*
X103429523Y-49624819D02*
X102858095Y-49624819D01*
X103143809Y-49624819D02*
X103143809Y-48624819D01*
X103143809Y-48624819D02*
X103048571Y-48767676D01*
X103048571Y-48767676D02*
X102953333Y-48862914D01*
X102953333Y-48862914D02*
X102858095Y-48910533D01*
D12*
X99653641Y-47880000D02*
X99346359Y-47880000D01*
X99653641Y-47120000D02*
X99346359Y-47120000D01*
X105830000Y-48420000D02*
X109670000Y-48420000D01*
X105830000Y-46580000D02*
X109670000Y-46580000D01*
X96160000Y-50170000D02*
X96160000Y-85850000D01*
X96160000Y-85850000D02*
X109080000Y-85850000D01*
X101620000Y-50170000D02*
X96160000Y-50170000D01*
X109080000Y-50170000D02*
X103620000Y-50170000D01*
X109080000Y-85850000D02*
X109080000Y-50170000D01*
X103620000Y-50170000D02*
G75*
G02*
X101620000Y-50170000I-1000000J0D01*
G01*
M02*
