G04 #@! TF.GenerationSoftware,KiCad,Pcbnew,8.0.1*
G04 #@! TF.CreationDate,2024-04-23T01:02:40+02:00*
G04 #@! TF.ProjectId,vectrex_cart_v1.01,76656374-7265-4785-9f63-6172745f7631,V0.1*
G04 #@! TF.SameCoordinates,Original*
G04 #@! TF.FileFunction,Copper,L1,Top*
G04 #@! TF.FilePolarity,Positive*
%FSLAX46Y46*%
G04 Gerber Fmt 4.6, Leading zero omitted, Abs format (unit mm)*
G04 Created by KiCad (PCBNEW 8.0.1) date 2024-04-23 01:02:40*
%MOMM*%
%LPD*%
G01*
G04 APERTURE LIST*
G04 Aperture macros list*
%AMRoundRect*
0 Rectangle with rounded corners*
0 $1 Rounding radius*
0 $2 $3 $4 $5 $6 $7 $8 $9 X,Y pos of 4 corners*
0 Add a 4 corners polygon primitive as box body*
4,1,4,$2,$3,$4,$5,$6,$7,$8,$9,$2,$3,0*
0 Add four circle primitives for the rounded corners*
1,1,$1+$1,$2,$3*
1,1,$1+$1,$4,$5*
1,1,$1+$1,$6,$7*
1,1,$1+$1,$8,$9*
0 Add four rect primitives between the rounded corners*
20,1,$1+$1,$2,$3,$4,$5,0*
20,1,$1+$1,$4,$5,$6,$7,0*
20,1,$1+$1,$6,$7,$8,$9,0*
20,1,$1+$1,$8,$9,$2,$3,0*%
G04 Aperture macros list end*
G04 #@! TA.AperFunction,ComponentPad*
%ADD10C,1.400000*%
G04 #@! TD*
G04 #@! TA.AperFunction,ComponentPad*
%ADD11O,1.400000X1.400000*%
G04 #@! TD*
G04 #@! TA.AperFunction,ConnectorPad*
%ADD12RoundRect,0.400000X-4.600000X0.400000X-4.600000X-0.400000X4.600000X-0.400000X4.600000X0.400000X0*%
G04 #@! TD*
G04 #@! TA.AperFunction,ComponentPad*
%ADD13R,2.400000X1.600000*%
G04 #@! TD*
G04 #@! TA.AperFunction,ComponentPad*
%ADD14O,2.400000X1.600000*%
G04 #@! TD*
G04 #@! TA.AperFunction,ViaPad*
%ADD15C,0.800000*%
G04 #@! TD*
G04 #@! TA.AperFunction,Conductor*
%ADD16C,0.400000*%
G04 #@! TD*
G04 #@! TA.AperFunction,Conductor*
%ADD17C,0.762000*%
G04 #@! TD*
G04 APERTURE END LIST*
D10*
X99560000Y-47250000D03*
D11*
X91940000Y-47250000D03*
D12*
X130810200Y-46400200D03*
X130810200Y-48940200D03*
X130810200Y-51480200D03*
X130810200Y-54020200D03*
X130810200Y-56560200D03*
X130810200Y-59100200D03*
X130810200Y-61640200D03*
X130810200Y-64180200D03*
X130810200Y-66720200D03*
X130810200Y-69260200D03*
X130810200Y-71800200D03*
X130810200Y-74340200D03*
X130810200Y-76880200D03*
X130810200Y-79420200D03*
X130810200Y-81960200D03*
X130810200Y-84500200D03*
X130810200Y-87040200D03*
X130810200Y-89580200D03*
D10*
X102690000Y-47250000D03*
D11*
X110310000Y-47250000D03*
D13*
X95000000Y-51500000D03*
D14*
X95000000Y-54040000D03*
X95000000Y-56580000D03*
X95000000Y-59120000D03*
X95000000Y-61660000D03*
X95000000Y-64200000D03*
X95000000Y-66740000D03*
X95000000Y-69280000D03*
X95000000Y-71820000D03*
X95000000Y-74360000D03*
X95000000Y-76900000D03*
X95000000Y-79440000D03*
X95000000Y-81980000D03*
X95000000Y-84520000D03*
X110240000Y-84520000D03*
X110240000Y-81980000D03*
X110240000Y-79440000D03*
X110240000Y-76900000D03*
X110240000Y-74360000D03*
X110240000Y-71820000D03*
X110240000Y-69280000D03*
X110240000Y-66740000D03*
X110240000Y-64200000D03*
X110240000Y-61660000D03*
X110240000Y-59120000D03*
X110240000Y-56580000D03*
X110240000Y-54040000D03*
X110240000Y-51500000D03*
D15*
X122750000Y-84500000D03*
D16*
X110240000Y-56580000D02*
X107920000Y-56580000D01*
X107920000Y-56580000D02*
X106750000Y-57750000D01*
X106750000Y-57750000D02*
X106750000Y-87000000D01*
X113750000Y-83650000D02*
X121900000Y-83650000D01*
X106750000Y-87000000D02*
X110400000Y-87000000D01*
X110400000Y-87000000D02*
X113750000Y-83650000D01*
X121900000Y-83650000D02*
X122750000Y-84500000D01*
X111480000Y-84520000D02*
X113000000Y-83000000D01*
X110240000Y-84520000D02*
X111480000Y-84520000D01*
X113000000Y-83000000D02*
X115500000Y-83000000D01*
X115500000Y-83000000D02*
X121619800Y-76880200D01*
X110240000Y-59120000D02*
X116880000Y-59120000D01*
X116880000Y-59120000D02*
X124519800Y-51480200D01*
X124519800Y-51480200D02*
X126810200Y-51480200D01*
X117500000Y-60750000D02*
X124250000Y-54000000D01*
X115000000Y-60750000D02*
X117500000Y-60750000D01*
X110240000Y-61660000D02*
X114090000Y-61660000D01*
X114090000Y-61660000D02*
X115000000Y-60750000D01*
X124250000Y-54000000D02*
X124750000Y-54000000D01*
X124750000Y-54000000D02*
X124770200Y-54020200D01*
X124770200Y-54020200D02*
X126810200Y-54020200D01*
X110240000Y-64200000D02*
X113130762Y-64200000D01*
X113130762Y-64200000D02*
X115330762Y-62000000D01*
X115330762Y-62000000D02*
X119750000Y-62000000D01*
X125189800Y-56560200D02*
X126810200Y-56560200D01*
X119750000Y-62000000D02*
X125189800Y-56560200D01*
X110240000Y-66740000D02*
X111510000Y-66740000D01*
X111510000Y-66740000D02*
X115250000Y-63000000D01*
X115250000Y-63000000D02*
X120500000Y-63000000D01*
X120500000Y-63000000D02*
X124399800Y-59100200D01*
X124399800Y-59100200D02*
X126810200Y-59100200D01*
X110240000Y-69280000D02*
X111430000Y-69280000D01*
X122173048Y-70480762D02*
X122173048Y-63826952D01*
X111430000Y-69280000D02*
X114750000Y-72600000D01*
X122173048Y-63826952D02*
X124359800Y-61640200D01*
X124359800Y-61640200D02*
X126810200Y-61640200D01*
X114750000Y-72600000D02*
X120053810Y-72600000D01*
X120053810Y-72600000D02*
X122173048Y-70480762D01*
X110240000Y-71820000D02*
X112570000Y-71820000D01*
X112570000Y-71820000D02*
X114000000Y-73250000D01*
X114000000Y-73250000D02*
X120323048Y-73250000D01*
X120323048Y-73250000D02*
X122823048Y-70750000D01*
X122823048Y-70750000D02*
X122823048Y-66176952D01*
X122823048Y-66176952D02*
X124819800Y-64180200D01*
X124819800Y-64180200D02*
X126810200Y-64180200D01*
X110240000Y-74360000D02*
X120132286Y-74360000D01*
X120132286Y-74360000D02*
X123492286Y-71000000D01*
X123492286Y-71000000D02*
X123492286Y-68007714D01*
X123492286Y-68007714D02*
X124750000Y-66750000D01*
X124750000Y-66750000D02*
X125250000Y-66750000D01*
X125250000Y-66750000D02*
X125279800Y-66720200D01*
X125279800Y-66720200D02*
X126810200Y-66720200D01*
X110240000Y-76900000D02*
X118511524Y-76900000D01*
X118511524Y-76900000D02*
X124250000Y-71161524D01*
X124250000Y-71161524D02*
X124250000Y-69578318D01*
X124250000Y-69578318D02*
X124568118Y-69260200D01*
X124568118Y-69260200D02*
X126810200Y-69260200D01*
X110240000Y-79440000D02*
X116890762Y-79440000D01*
X116890762Y-79440000D02*
X124530562Y-71800200D01*
X124530562Y-71800200D02*
X126810200Y-71800200D01*
X110240000Y-81980000D02*
X115270000Y-81980000D01*
X115270000Y-81980000D02*
X122909800Y-74340200D01*
X122909800Y-74340200D02*
X126810200Y-74340200D01*
X121619800Y-76880200D02*
X126810200Y-76880200D01*
D17*
X123250000Y-48750000D02*
X120500000Y-51500000D01*
X120500000Y-51500000D02*
X110240000Y-51500000D01*
X126810200Y-46400200D02*
X123349800Y-46400200D01*
X123349800Y-46400200D02*
X123250000Y-46500000D01*
X123250000Y-46500000D02*
X123250000Y-48750000D01*
X123250000Y-48750000D02*
X123440200Y-48940200D01*
X123440200Y-48940200D02*
X126810200Y-48940200D01*
X110310000Y-47250000D02*
X110310000Y-51430000D01*
X110310000Y-51430000D02*
X110240000Y-51500000D01*
M02*
