G04 #@! TF.GenerationSoftware,KiCad,Pcbnew,8.0.1*
G04 #@! TF.CreationDate,2024-04-23T01:02:40+02:00*
G04 #@! TF.ProjectId,vectrex_cart_v1.01,76656374-7265-4785-9f63-6172745f7631,V0.1*
G04 #@! TF.SameCoordinates,Original*
G04 #@! TF.FileFunction,Copper,L2,Bot*
G04 #@! TF.FilePolarity,Positive*
%FSLAX46Y46*%
G04 Gerber Fmt 4.6, Leading zero omitted, Abs format (unit mm)*
G04 Created by KiCad (PCBNEW 8.0.1) date 2024-04-23 01:02:40*
%MOMM*%
%LPD*%
G01*
G04 APERTURE LIST*
G04 Aperture macros list*
%AMRoundRect*
0 Rectangle with rounded corners*
0 $1 Rounding radius*
0 $2 $3 $4 $5 $6 $7 $8 $9 X,Y pos of 4 corners*
0 Add a 4 corners polygon primitive as box body*
4,1,4,$2,$3,$4,$5,$6,$7,$8,$9,$2,$3,0*
0 Add four circle primitives for the rounded corners*
1,1,$1+$1,$2,$3*
1,1,$1+$1,$4,$5*
1,1,$1+$1,$6,$7*
1,1,$1+$1,$8,$9*
0 Add four rect primitives between the rounded corners*
20,1,$1+$1,$2,$3,$4,$5,0*
20,1,$1+$1,$4,$5,$6,$7,0*
20,1,$1+$1,$6,$7,$8,$9,0*
20,1,$1+$1,$8,$9,$2,$3,0*%
G04 Aperture macros list end*
G04 #@! TA.AperFunction,ComponentPad*
%ADD10C,1.400000*%
G04 #@! TD*
G04 #@! TA.AperFunction,ComponentPad*
%ADD11O,1.400000X1.400000*%
G04 #@! TD*
G04 #@! TA.AperFunction,ConnectorPad*
%ADD12RoundRect,0.400000X4.600000X-0.400000X4.600000X0.400000X-4.600000X0.400000X-4.600000X-0.400000X0*%
G04 #@! TD*
G04 #@! TA.AperFunction,ComponentPad*
%ADD13R,2.400000X1.600000*%
G04 #@! TD*
G04 #@! TA.AperFunction,ComponentPad*
%ADD14O,2.400000X1.600000*%
G04 #@! TD*
G04 #@! TA.AperFunction,ViaPad*
%ADD15C,0.800000*%
G04 #@! TD*
G04 #@! TA.AperFunction,Conductor*
%ADD16C,0.400000*%
G04 #@! TD*
G04 #@! TA.AperFunction,Conductor*
%ADD17C,0.762000*%
G04 #@! TD*
G04 #@! TA.AperFunction,Conductor*
%ADD18C,0.508000*%
G04 #@! TD*
G04 APERTURE END LIST*
D10*
X99560000Y-47250000D03*
D11*
X91940000Y-47250000D03*
D12*
X130810200Y-46400200D03*
X130810200Y-48940200D03*
X130810200Y-51480200D03*
X130810200Y-54020200D03*
X130810200Y-56560200D03*
X130810200Y-59100200D03*
X130810200Y-61640200D03*
X130810200Y-64180200D03*
X130810200Y-66720200D03*
X130810200Y-69260200D03*
X130810200Y-71800200D03*
X130810200Y-74340200D03*
X130810200Y-76880200D03*
X130810200Y-79420200D03*
X130810200Y-81960200D03*
X130810200Y-84500200D03*
X130810200Y-87040200D03*
X130810200Y-89580200D03*
D10*
X102690000Y-47250000D03*
D11*
X110310000Y-47250000D03*
D13*
X95000000Y-51500000D03*
D14*
X95000000Y-54040000D03*
X95000000Y-56580000D03*
X95000000Y-59120000D03*
X95000000Y-61660000D03*
X95000000Y-64200000D03*
X95000000Y-66740000D03*
X95000000Y-69280000D03*
X95000000Y-71820000D03*
X95000000Y-74360000D03*
X95000000Y-76900000D03*
X95000000Y-79440000D03*
X95000000Y-81980000D03*
X95000000Y-84520000D03*
X110240000Y-84520000D03*
X110240000Y-81980000D03*
X110240000Y-79440000D03*
X110240000Y-76900000D03*
X110240000Y-74360000D03*
X110240000Y-71820000D03*
X110240000Y-69280000D03*
X110240000Y-66740000D03*
X110240000Y-64200000D03*
X110240000Y-61660000D03*
X110240000Y-59120000D03*
X110240000Y-56580000D03*
X110240000Y-54040000D03*
X110240000Y-51500000D03*
D15*
X122750000Y-84500000D03*
D16*
X110240000Y-54040000D02*
X111710000Y-54040000D01*
X111710000Y-54040000D02*
X112750000Y-53000000D01*
X112750000Y-53000000D02*
X112750000Y-51000000D01*
X111000000Y-49250000D02*
X104690000Y-49250000D01*
X112750000Y-51000000D02*
X111000000Y-49250000D01*
X104690000Y-49250000D02*
X102690000Y-47250000D01*
X91500000Y-54000000D02*
X91500000Y-86919238D01*
X91500000Y-54000000D02*
X91940000Y-53560000D01*
X91940000Y-53560000D02*
X91940000Y-47250000D01*
X91500000Y-86919238D02*
X93080762Y-88500000D01*
X112094450Y-88500000D02*
X116344450Y-84250000D01*
X93080762Y-88500000D02*
X112094450Y-88500000D01*
X116344450Y-84250000D02*
X119750000Y-84250000D01*
X119750000Y-84250000D02*
X122540200Y-87040200D01*
X122540200Y-87040200D02*
X126810200Y-87040200D01*
X92960000Y-54040000D02*
X92250000Y-54750000D01*
X111844212Y-87831000D02*
X117715012Y-81960200D01*
X117715012Y-81960200D02*
X126810200Y-81960200D01*
X92250000Y-54750000D02*
X92250000Y-86750000D01*
X92250000Y-86750000D02*
X93331000Y-87831000D01*
X95000000Y-54040000D02*
X92960000Y-54040000D01*
X93331000Y-87831000D02*
X111844212Y-87831000D01*
D17*
X124119800Y-76880200D02*
X121619800Y-76880200D01*
X121619800Y-76880200D02*
X111500000Y-87000000D01*
X111500000Y-87000000D02*
X105500000Y-87000000D01*
X103020000Y-84520000D02*
X95000000Y-84520000D01*
X105500000Y-87000000D02*
X103020000Y-84520000D01*
X126810200Y-79420200D02*
X123920200Y-79420200D01*
X123920200Y-79420200D02*
X123750000Y-79250000D01*
X123750000Y-79250000D02*
X123750000Y-77250000D01*
X123750000Y-77250000D02*
X124119800Y-76880200D01*
X124119800Y-76880200D02*
X126810200Y-76880200D01*
X95000000Y-51500000D02*
X110240000Y-51500000D01*
D16*
X126810200Y-84500200D02*
X122750200Y-84500200D01*
X122750200Y-84500200D02*
X122750000Y-84500000D01*
X95000000Y-69280000D02*
X99970000Y-69280000D01*
X99970000Y-69280000D02*
X101250000Y-68000000D01*
X101250000Y-68000000D02*
X112250000Y-68000000D01*
X115500000Y-63000000D02*
X119250000Y-63000000D01*
X112250000Y-68000000D02*
X112250000Y-66250000D01*
X112250000Y-66250000D02*
X115500000Y-63000000D01*
X120609800Y-61640200D02*
X126810200Y-61640200D01*
X119250000Y-63000000D02*
X120609800Y-61640200D01*
X95000000Y-66740000D02*
X99260000Y-66740000D01*
X99260000Y-66740000D02*
X100550000Y-65450000D01*
X100550000Y-65450000D02*
X111550000Y-65450000D01*
X111550000Y-65450000D02*
X115000000Y-62000000D01*
X118500000Y-62000000D02*
X121399800Y-59100200D01*
X115000000Y-62000000D02*
X118500000Y-62000000D01*
X121399800Y-59100200D02*
X126810200Y-59100200D01*
X95000000Y-64200000D02*
X99050000Y-64200000D01*
X99050000Y-64200000D02*
X100340000Y-62910000D01*
X113750000Y-61250000D02*
X118000000Y-61250000D01*
X100340000Y-62910000D02*
X112090000Y-62910000D01*
X112090000Y-62910000D02*
X113750000Y-61250000D01*
X118000000Y-61250000D02*
X122689800Y-56560200D01*
X122689800Y-56560200D02*
X126810200Y-56560200D01*
X95000000Y-61660000D02*
X99090000Y-61660000D01*
X99090000Y-61660000D02*
X100500000Y-60250000D01*
X100500000Y-60250000D02*
X100620000Y-60370000D01*
X100620000Y-60370000D02*
X117380000Y-60370000D01*
X117380000Y-60370000D02*
X123729800Y-54020200D01*
X123729800Y-54020200D02*
X126810200Y-54020200D01*
X95000000Y-56580000D02*
X99170000Y-56580000D01*
X99170000Y-56580000D02*
X100460000Y-55290000D01*
X100460000Y-55290000D02*
X118460000Y-55290000D01*
X125250000Y-49000000D02*
X125309800Y-48940200D01*
X118460000Y-55290000D02*
X124750000Y-49000000D01*
X124750000Y-49000000D02*
X125250000Y-49000000D01*
X125309800Y-48940200D02*
X126810200Y-48940200D01*
X95000000Y-59120000D02*
X99380000Y-59120000D01*
X99380000Y-59120000D02*
X100670000Y-57830000D01*
X100670000Y-57830000D02*
X118670000Y-57830000D01*
X118670000Y-57830000D02*
X125019800Y-51480200D01*
X125019800Y-51480200D02*
X126810200Y-51480200D01*
X119250000Y-73750000D02*
X114750000Y-73750000D01*
X124819800Y-64180200D02*
X121750000Y-67250000D01*
X121750000Y-67250000D02*
X121750000Y-71250000D01*
X121750000Y-71250000D02*
X119250000Y-73750000D01*
X126810200Y-64180200D02*
X124819800Y-64180200D01*
X114750000Y-73750000D02*
X111530000Y-70530000D01*
X111530000Y-70530000D02*
X101970000Y-70530000D01*
X101970000Y-70530000D02*
X100680000Y-71820000D01*
X100680000Y-71820000D02*
X95000000Y-71820000D01*
X99560000Y-47250000D02*
X102690000Y-47250000D01*
X95000000Y-81980000D02*
X102270000Y-81980000D01*
X102270000Y-81980000D02*
X103520000Y-80730000D01*
X103520000Y-80730000D02*
X116270000Y-80730000D01*
X116270000Y-80730000D02*
X122659800Y-74340200D01*
X122659800Y-74340200D02*
X126810200Y-74340200D01*
X95000000Y-79440000D02*
X101810000Y-79440000D01*
X101810000Y-79440000D02*
X103060000Y-78190000D01*
X103060000Y-78190000D02*
X117810000Y-78190000D01*
X117810000Y-78190000D02*
X124199800Y-71800200D01*
X124199800Y-71800200D02*
X126810200Y-71800200D01*
X95000000Y-76900000D02*
X101600000Y-76900000D01*
X123150000Y-70650000D02*
X124539800Y-69260200D01*
X101600000Y-76900000D02*
X102850000Y-75650000D01*
X102850000Y-75650000D02*
X119269238Y-75650000D01*
X119269238Y-75650000D02*
X123150000Y-71769239D01*
X123150000Y-71769239D02*
X123150000Y-70650000D01*
X124539800Y-69260200D02*
X126810200Y-69260200D01*
X95000000Y-74360000D02*
X101390000Y-74360000D01*
X101390000Y-74360000D02*
X102680000Y-73070000D01*
X112570000Y-73070000D02*
X114000000Y-74500000D01*
X119500000Y-74500000D02*
X122500000Y-71500000D01*
X102680000Y-73070000D02*
X112570000Y-73070000D01*
X114000000Y-74500000D02*
X119500000Y-74500000D01*
X124529800Y-66720200D02*
X126810200Y-66720200D01*
X122500000Y-71500000D02*
X122500000Y-68750000D01*
X122500000Y-68750000D02*
X124529800Y-66720200D01*
D18*
X126770400Y-82000000D02*
X126810200Y-81960200D01*
M02*
