M48
; DRILL file {KiCad 8.0.1} date 2024-04-23T01:02:34+0200
; FORMAT={-:-/ absolute / inch / decimal}
; #@! TF.CreationDate,2024-04-23T01:02:34+02:00
; #@! TF.GenerationSoftware,Kicad,Pcbnew,8.0.1
; #@! TF.FileFunction,Plated,1,2,PTH
FMAT,2
INCH
; #@! TA.AperFunction,Plated,PTH,ViaDrill
T1C0.0157
; #@! TA.AperFunction,Plated,PTH,ComponentDrill
T2C0.0276
; #@! TA.AperFunction,Plated,PTH,ComponentDrill
T3C0.0315
%
G90
G05
T1
X4.8327Y-3.3268
T2
X3.6197Y-1.8602
X3.9197Y-1.8602
X4.0429Y-1.8602
X4.3429Y-1.8602
T3
X3.7402Y-2.0276
X3.7402Y-2.1276
X3.7402Y-2.2276
X3.7402Y-2.3276
X3.7402Y-2.4276
X3.7402Y-2.5276
X3.7402Y-2.6276
X3.7402Y-2.7276
X3.7402Y-2.8276
X3.7402Y-2.9276
X3.7402Y-3.0276
X3.7402Y-3.1276
X3.7402Y-3.2276
X3.7402Y-3.3276
X4.3402Y-2.0276
X4.3402Y-2.1276
X4.3402Y-2.2276
X4.3402Y-2.3276
X4.3402Y-2.4276
X4.3402Y-2.5276
X4.3402Y-2.6276
X4.3402Y-2.7276
X4.3402Y-2.8276
X4.3402Y-2.9276
X4.3402Y-3.0276
X4.3402Y-3.1276
X4.3402Y-3.2276
X4.3402Y-3.3276
M30
